HIERARCHY
ROOT Hips
{
 OFFSET 0.000000 0.000000 0.000000
 CHANNELS 6 Xposition Yposition Zposition Yrotation Xrotation Zrotation
 JOINT Chest
 {
  OFFSET 0.000000 9.581000 -0.001100
  CHANNELS 3 Yrotation Xrotation Zrotation
  JOINT Chest2
  {
   OFFSET 0.000000 9.561100 0.002200
   CHANNELS 3 Yrotation Xrotation Zrotation
   JOINT Chest3
   {
    OFFSET 0.000000 9.521100 0.000000
    CHANNELS 3 Yrotation Xrotation Zrotation
    JOINT Chest4
    {
     OFFSET 0.000000 9.511400 0.000000
     CHANNELS 3 Yrotation Xrotation Zrotation
     JOINT Neck
     {
      OFFSET 0.000000 14.375100 0.000000
      CHANNELS 3 Yrotation Xrotation Zrotation
      JOINT Head
      {
       OFFSET 0.000000 8.901200 0.004600
       CHANNELS 3 Yrotation Xrotation Zrotation
       End Site
       {
        OFFSET 0.000000 16.962200 0.002400
       }
      }
     }
     JOINT RightCollar
     {
      OFFSET -2.920100 9.518800 0.000000
      CHANNELS 3 Yrotation Xrotation Zrotation
      JOINT RightShoulder
      {
       OFFSET -13.664500 0.000000 0.000000
       CHANNELS 3 Yrotation Xrotation Zrotation
       JOINT RightElbow
       {
        OFFSET 0.000000 -29.999200 0.000000
        CHANNELS 3 Yrotation Xrotation Zrotation
        JOINT RightWrist
        {
         OFFSET 0.000000 -24.253600 0.000000
         CHANNELS 3 Yrotation Xrotation Zrotation
         End Site
         {
          OFFSET 0.000000 -17.918900 0.000000
         }
        }
       }
      }
     }
     JOINT LeftCollar
     {
      OFFSET 2.920100 9.518800 0.000000
      CHANNELS 3 Yrotation Xrotation Zrotation
      JOINT LeftShoulder
      {
       OFFSET 13.664500 0.000000 0.000000
       CHANNELS 3 Yrotation Xrotation Zrotation
       JOINT LeftElbow
       {
        OFFSET 0.000000 -29.999200 0.000000
        CHANNELS 3 Yrotation Xrotation Zrotation
        JOINT LeftWrist
        {
         OFFSET 0.000000 -24.253600 0.000000
         CHANNELS 3 Yrotation Xrotation Zrotation
         End Site
         {
          OFFSET 0.000000 -17.918900 0.000000
         }
        }
       }
      }
     }
    }
   }
  }
 }
 JOINT RightHip
 {
  OFFSET -7.797300 0.005300 0.000500
  CHANNELS 3 Yrotation Xrotation Zrotation
  JOINT RightKnee
  {
   OFFSET 0.000000 -40.663400 -0.000500
   CHANNELS 3 Yrotation Xrotation Zrotation
   JOINT RightAnkle
   {
    OFFSET 0.000000 -39.523700 -0.000900
    CHANNELS 3 Yrotation Xrotation Zrotation
    JOINT RightToe
    {
     OFFSET 0.000000 -6.418000 14.485300
     CHANNELS 3 Yrotation Xrotation Zrotation
     End Site
     {
      OFFSET 0.000000 -1.465200 6.326400
     }
    }
   }
  }
 }
 JOINT LeftHip
 {
  OFFSET 7.797300 0.005300 0.000500
  CHANNELS 3 Yrotation Xrotation Zrotation
  JOINT LeftKnee
  {
   OFFSET 0.000000 -40.663400 -0.000500
   CHANNELS 3 Yrotation Xrotation Zrotation
   JOINT LeftAnkle
   {
    OFFSET 0.000000 -39.523700 -0.000900
    CHANNELS 3 Yrotation Xrotation Zrotation
    JOINT LeftToe
    {
     OFFSET 0.000000 -6.418000 14.485300
     CHANNELS 3 Yrotation Xrotation Zrotation
     End Site
     {
      OFFSET 0.000000 -1.465200 6.326400
     }
    }
   }
  }
 }
}
MOTION
Frames: 12
Frame Time: 0.008333
-22.052955 126.501637 74.211910 -179.700365 -29.963546 -3.448295 -6.558313 18.946838 0.615239 -0.836074 2.328838 0.191433 -1.317179 3.878465 0.298208 -5.623445 16.300074 0.653144 4.248855 17.580740 -5.344254 5.858455 -6.913879 -6.794914 1.396603 -7.245675 -3.430583 12.968765 -19.610933 -4.167117 -162.927547 -52.964206 -173.032596 0.198662 -28.696445 -53.674866 -10.467217 -5.646203 -2.712387 -19.209569 -31.541369 11.297486 138.294385 -71.327801 -161.526486 -21.594618 -24.577898 47.212329 1.971643 -56.587846 6.443706 -34.358250 69.358597 -31.758358 24.186770 34.497170 15.668191 0.008069 0.004825 0.003575 -7.076160 -46.459388 -1.528802 33.181644 77.689219 23.167942 1.712500 -1.858820 9.230751 0.001582 -0.003707 0.000701
-22.054551 126.501190 74.209650 -179.682100 -29.933114 -3.440241 -6.498763 18.982032 0.628621 -0.810433 2.356382 0.193371 -1.326828 3.868737 0.300086 -5.574532 16.330134 0.663078 4.235168 17.555623 -5.327972 5.838840 -6.943647 -6.772784 1.403887 -7.326160 -3.461676 12.859741 -19.490042 -4.096285 -162.221693 -52.986092 -173.603525 0.138010 -28.873261 -53.485767 -10.496806 -5.740171 -2.629338 -19.200795 -31.518071 11.276778 138.053908 -71.435276 -161.348949 -21.648140 -24.614053 47.281024 1.992150 -56.621863 6.391420 -34.319205 69.371229 -31.711036 24.143703 34.544837 15.688420 0.003729 0.001758 0.001652 -7.109787 -46.494210 -1.529042 33.212109 77.688798 23.178714 1.711537 -1.858794 9.234083 -0.000785 -0.003329 -0.000348
-22.056560 126.500757 74.207170 -179.664022 -29.903663 -3.432062 -6.437043 19.011153 0.639740 -0.803612 2.361777 0.194361 -1.315669 3.877356 0.301730 -5.521958 16.356030 0.674327 4.219648 17.541426 -5.310210 5.816771 -6.961537 -6.748629 1.408643 -7.382597 -3.502386 12.740735 -19.367292 -4.012551 -161.400458 -52.995930 -174.263308 0.051933 -29.066520 -53.245264 -10.451614 -5.836078 -2.520359 -19.258802 -31.489489 11.223484 137.914010 -71.537270 -161.268565 -21.722194 -24.646605 47.404089 2.020337 -56.657805 6.321640 -34.244506 69.396929 -31.625081 24.133286 34.585739 15.715930 -0.000257 -0.001206 -0.000114 -7.135091 -46.529507 -1.540635 33.268371 77.683350 23.221873 1.710607 -1.855035 9.234468 -0.003361 -0.003374 -0.001489
-22.058984 126.500269 74.204494 -179.649629 -29.875442 -3.421934 -6.370547 19.035354 0.648171 -0.796032 2.365961 0.195306 -1.303182 3.884089 0.303337 -5.465534 16.378783 0.686301 4.201563 17.534462 -5.291245 5.791608 -6.971575 -6.722569 1.411055 -7.419256 -3.552593 12.611637 -19.243759 -3.915500 -160.499932 -52.993231 -174.986098 -0.056163 -29.256728 -52.982081 -10.455384 -5.927533 -2.422717 -19.289014 -31.453290 11.199016 137.872324 -71.628369 -161.286111 -21.812810 -24.655212 47.571839 2.074226 -56.696197 6.227032 -34.190601 69.430296 -31.550629 24.141029 34.600985 15.741866 -0.008589 -0.006426 -0.003805 -7.150878 -46.562542 -1.562402 33.313863 77.675380 23.269292 1.710702 -1.851981 9.225384 -0.000392 -0.001454 -0.000174
-22.060255 126.499708 74.201726 -179.631210 -29.847567 -3.422886 -6.303337 19.060266 0.663824 -0.788310 2.369822 0.196299 -1.290379 3.890314 0.305119 -5.408358 16.400623 0.699067 4.182106 17.528559 -5.273555 5.765276 -6.980361 -6.697557 1.412604 -7.450348 -3.609865 12.477852 -19.120780 -3.809611 -159.551438 -52.981440 -175.748386 -0.173633 -29.434459 -52.730435 -10.488065 -6.016446 -2.328790 -19.298908 -31.422728 11.194437 137.892105 -71.706839 -161.370990 -21.909845 -24.627175 47.764017 2.091073 -56.727571 6.194185 -34.164904 69.448763 -31.522354 24.100844 34.613832 15.749589 -0.006002 -0.007924 -0.002659 -7.182945 -46.597870 -1.579643 33.385673 77.665274 23.343209 1.724474 -1.847286 9.217250 -0.003992 -0.001294 -0.001769
-22.061034 126.499121 74.198628 -179.608271 -29.821336 -3.430888 -6.241562 19.090307 0.682712 -0.781425 2.374208 0.197344 -1.278910 3.897385 0.306967 -5.356105 16.423094 0.711462 4.164735 17.520352 -5.260725 5.742536 -6.991366 -6.678494 1.422080 -7.488579 -3.673898 12.344834 -18.998893 -3.700823 -158.585028 -52.961393 -176.526804 -0.291640 -29.599582 -52.514213 -10.512590 -6.109733 -2.235642 -19.298451 -31.403042 11.192000 137.918152 -71.778809 -161.478590 -22.008763 -24.570198 47.960075 2.090622 -56.755640 6.180148 -34.140201 69.459499 -31.506454 24.106691 34.635849 15.792836 -0.000035 -0.005836 -0.000015 -7.216182 -46.627575 -1.585360 33.419516 77.659073 23.376660 1.730305 -1.845020 9.216014 -0.004801 0.001097 -0.002127
-22.063011 126.498134 74.195624 -179.583647 -29.793426 -3.434068 -6.226650 19.091187 0.685741 -0.746375 2.408619 0.195975 -1.270328 3.905376 0.308972 -5.314825 16.445241 0.723134 4.154989 17.510404 -5.255905 5.730384 -7.003356 -6.670447 1.450617 -7.535579 -3.748593 12.223513 -18.879738 -3.597362 -157.629242 -52.929364 -177.305330 -0.403333 -29.755695 -52.340101 -10.519416 -6.206711 -2.151687 -19.274016 -31.394712 11.186006 137.888241 -71.847251 -161.552663 -22.115161 -24.503091 48.143329 2.087384 -56.783413 6.162963 -34.112144 69.469603 -31.505193 24.111647 34.648721 15.889887 -0.005397 -0.003066 -0.002391 -7.247412 -46.658856 -1.597411 33.440680 77.652814 23.395787 1.736032 -1.841142 9.214279 -0.005177 0.003332 -0.002294
-22.063350 126.496416 74.193646 -179.560104 -29.757816 -3.447782 -6.173112 19.129846 0.711602 -0.783304 2.367309 0.199509 -1.242513 3.946164 0.309178 -5.286646 16.465735 0.734712 4.156013 17.499609 -5.260193 5.732600 -7.014996 -6.675495 1.500213 -7.591131 -3.837176 12.129751 -18.763876 -3.506853 -156.703499 -52.885763 -178.078156 -0.502646 -29.909659 -52.196951 -10.506554 -6.307613 -2.082650 -19.221869 -31.391754 11.173899 137.801736 -71.910139 -161.583282 -22.226118 -24.449172 48.297314 2.097580 -56.821931 6.150897 -34.158172 69.468390 -31.548067 24.125414 34.650725 15.947160 0.002372 -0.005849 0.001051 -7.289083 -46.696302 -1.594416 33.413167 77.643122 23.383832 1.743815 -1.830875 9.194191 0.001244 0.005854 0.000551
-22.065066 126.495088 74.190476 -179.543432 -29.729624 -3.451213 -6.142776 19.161162 0.723157 -0.799764 2.341119 0.200817 -1.244949 3.949494 0.311557 -5.262564 16.497738 0.741211 4.147345 17.471557 -5.263115 5.777176 -6.987626 -6.704392 1.571657 -7.634454 -3.939963 12.070813 -18.652154 -3.430988 -155.830542 -52.835497 -178.829353 -0.592324 -30.064308 -52.066120 -10.475032 -6.390476 -2.034850 -19.212308 -31.384577 11.146406 137.850461 -72.006964 -161.692936 -22.332251 -24.434251 48.419049 2.144595 -56.855886 6.113163 -34.230554 69.471419 -31.624552 24.155549 34.628449 16.018006 -0.001964 -0.008148 -0.000870 -7.308457 -46.725072 -1.600202 33.397412 77.634517 23.375327 1.742018 -1.822295 9.186105 0.006621 0.006305 0.002934
-22.068116 126.495562 74.183766 -179.530740 -29.725033 -3.446443 -6.123040 19.212818 0.721830 -0.771381 2.393854 0.202527 -1.284925 3.875150 0.317348 -5.267454 16.484510 0.746462 4.164522 17.489397 -5.271403 5.824693 -6.965408 -6.734504 1.661653 -7.646156 -4.049811 12.046726 -18.545231 -3.370274 -155.037977 -52.783186 -179.534637 -0.675177 -30.214931 -51.935223 -10.430893 -6.431974 -2.006900 -19.183077 -31.373681 11.119793 137.937455 -72.102103 -161.822473 -22.427218 -24.476809 48.522711 2.223757 -56.866272 6.053295 -34.194612 69.518261 -31.606419 24.169781 34.568581 16.093785 -0.006540 -0.000362 -0.002898 -7.325007 -46.729818 -1.618502 33.437754 77.622574 23.412467 1.742679 -1.816604 9.183886 0.005864 0.003739 0.002598
-22.070739 126.494027 74.180468 -179.503129 -29.695538 -3.453499 -6.107780 19.252608 0.725259 -0.786910 2.371862 0.208954 -1.252536 3.949799 0.312607 -5.276433 16.456402 0.769874 4.217146 17.523275 -5.301845 5.808973 -7.037616 -6.725869 1.716561 -7.740391 -4.147269 12.049727 -18.446260 -3.324970 -154.335697 -52.731460 179.823386 -0.748033 -30.353017 -51.798942 -10.437479 -6.536925 -1.962800 -19.090204 -31.365215 11.108780 137.977073 -72.172819 -161.919783 -22.507413 -24.588248 48.621066 2.299215 -56.897120 5.977488 -34.163430 69.545913 -31.555833 24.210516 34.537674 16.131896 -0.000962 0.003108 -0.000426 -7.371624 -46.760155 -1.625944 33.499779 77.606413 23.468679 1.748086 -1.810738 9.181608 0.000683 0.003891 0.000303
-22.073274 126.489755 74.181973 -179.449849 -29.631127 -3.476041 -6.119231 19.240157 0.727056 -0.807391 2.352100 0.219787 -1.224236 3.995441 0.298628 -5.277968 16.464182 0.786714 4.258534 17.515351 -5.315237 5.778592 -7.087366 -6.702502 1.765009 -7.831271 -4.226799 12.065283 -18.360309 -3.291248 -153.717427 -52.682907 179.256325 -0.819658 -30.476940 -51.645917 -10.461523 -6.618565 -1.921122 -19.039424 -31.353343 11.128148 138.077089 -72.252241 -162.020055 -22.576115 -24.779099 48.719130 2.347381 -56.963028 5.906062 -34.115823 69.572740 -31.485649 24.196642 34.527217 16.152321 -0.001021 0.004215 -0.000453 -7.432663 -46.824493 -1.622934 33.517192 77.593283 23.489465 1.743663 -1.805073 9.178224 0.001935 0.007774 0.000857
